<svg width="24" height="24" viewBox="0 0 24 24" fill="none" xmlns="http://www.w3.org/2000/svg">
<g clip-path="url(#clip0_39_512)">
<path opacity="0.2" d="M17.5381 14.7694L15.8524 22.3547C15.8067 22.5596 15.6925 22.7429 15.5287 22.8742C15.3649 23.0055 15.1612 23.077 14.9512 23.077H7.20209C6.99213 23.077 6.78843 23.0055 6.62461 22.8742C6.46078 22.7429 6.34662 22.5596 6.30095 22.3547L4.6152 14.7694H17.5381Z" fill="black"/>
<path d="M19.3842 13.8463H10.5344L10.8055 13.5751L13.1201 11.2605C14.0549 11.7313 15.085 11.9823 16.1316 11.9944C17.1851 11.9971 18.2189 11.7089 19.1189 11.1613C21.8557 9.5044 23.3223 5.66907 23.0419 0.901445C23.0287 0.675623 22.933 0.462506 22.7731 0.302554C22.6131 0.142602 22.4 0.0469524 22.1742 0.0337648C17.4066 -0.245462 13.5712 1.2199 11.9132 3.95679C10.8344 5.73945 10.8067 7.8925 11.814 9.9567L10.1536 11.6171L8.74477 10.2082C9.43707 8.67941 9.38746 7.0929 8.58439 5.7683C7.33018 3.69256 4.45368 2.58488 0.891806 2.79488C0.666375 2.80831 0.45369 2.90392 0.294004 3.06361C0.134318 3.22329 0.0387118 3.43598 0.0252795 3.66141C-0.184718 7.22328 0.922959 10.0986 2.99985 11.354C3.69468 11.7783 4.4934 12.0019 5.30751 12.0001C6.04609 11.9928 6.7746 11.828 7.44441 11.5167L8.84862 12.9232L7.92555 13.8463H2.76909C2.52428 13.8463 2.28949 13.9435 2.11638 14.1166C1.94327 14.2897 1.84602 14.5245 1.84602 14.7693C1.84602 15.0141 1.94327 15.2489 2.11638 15.422C2.28949 15.5951 2.52428 15.6924 2.76909 15.6924H3.87561L5.39982 22.5542C5.48877 22.9654 5.71642 23.3335 6.04457 23.5967C6.37272 23.86 6.78142 24.0023 7.2021 24H14.9524C15.3729 24.0019 15.7814 23.8594 16.1095 23.5962C16.4376 23.333 16.6653 22.9652 16.7547 22.5542L18.2789 15.6924H19.3842C19.6291 15.6924 19.8638 15.5951 20.0369 15.422C20.2101 15.2489 20.3073 15.0141 20.3073 14.7693C20.3073 14.5245 20.2101 14.2897 20.0369 14.1166C19.8638 13.9435 19.6291 13.8463 19.3842 13.8463ZM13.4997 4.91331C14.7066 2.9218 17.5647 1.79797 21.2304 1.84759C21.2777 5.51792 20.1562 8.37596 18.1646 9.57825C16.8366 10.3859 15.2339 10.3329 13.6324 9.4421C12.7405 7.84635 12.692 6.24137 13.4997 4.91331ZM6.93557 9.70517C5.87404 10.2729 4.82291 10.2994 3.95522 9.7744C2.62832 8.97018 1.86333 7.07444 1.84602 4.61562C4.30484 4.63293 6.20173 5.39792 7.0048 6.72483C7.53094 7.59251 7.49979 8.64365 6.93557 9.70517ZM14.9524 22.1538H7.2021L5.76905 15.6924H16.3843L14.9524 22.1538Z" fill="black"/>
</g>
<defs>
<clipPath id="clip0_39_512">
<rect width="24" height="24" fill="white"/>
</clipPath>
</defs>
</svg>
